<svg version="1.1" xmlns="http://www.w3.org/2000/svg" xmlns:xlink="http://www.w3.org/1999/xlink" width="123.57807" height="85.20269" viewBox="0.5,0.5,123.57807,85.20269"><g transform="translate(-177.71096,-136.89865)"><g data-paper-data="{&quot;isPaintingLayer&quot;:true}" fill-rule="nonzero" stroke="#7c87a5" stroke-linecap="butt" stroke-linejoin="miter" stroke-miterlimit="10" stroke-dasharray="" stroke-dashoffset="0" style="mix-blend-mode: normal"><path d="M181.44145,212.06653v-45.04505h82.58258v45.04505z" fill="#e6e7e8" stroke-width="5"/><path d="M236.99701,216.57103v-52.55256h55.55555v52.55256c0,0 -0.72854,0 -1.68093,0c-5.39179,0 -53.87462,0 -53.87462,0z" fill="#4c97ff" stroke-width="5"/><path d="M259.33528,186.1991c-1.08236,1.18078 -1.62357,2.55834 -1.62357,4.13273c0,1.67278 0.54118,3.05034 1.62357,4.13273c1.18078,1.18078 2.60758,1.77117 4.28033,1.77117c1.57436,0 2.95195,-0.59039 4.13273,-1.77117c1.18078,-1.08239 1.77117,-2.45995 1.77117,-4.13273c0,-1.57439 -0.59039,-2.95195 -1.77117,-4.13273c-1.18078,-1.18078 -2.55837,-1.77117 -4.13273,-1.77117c-1.67278,0 -3.09955,0.59039 -4.28033,1.77117M284.27928,184.42794c-1.67278,0 -3.09955,0.59039 -4.28033,1.77117c-1.08236,1.18078 -1.62357,2.55834 -1.62357,4.13273c0,1.67278 0.54118,3.05034 1.62357,4.13273c1.18078,1.18078 2.60758,1.77117 4.28033,1.77117c1.57436,0 2.95195,-0.59039 4.13273,-1.77117c1.18078,-1.08239 1.77117,-2.45995 1.77117,-4.13273c0,-1.57439 -0.59039,-2.95195 -1.77117,-4.13273c-1.18078,-1.18078 -2.55837,-1.77117 -4.13273,-1.77117M216.03243,172.62012h-14.40781v11.66021h-11.80781v11.80781h11.80781v11.80781h11.80781v-11.80781h11.66021v-11.80781h-11.66021v-11.66021M235.71967,141.91982l0.92838,-0.83318l0.6,0.26201l2.75195,-1.2c1.57436,0 2.95195,0.59039 4.13273,1.77117c1.18078,1.18078 1.77117,2.55834 1.77117,4.13273v14.75976h47.23123c1.57436,0 2.95195,0.59039 4.13273,1.77117c1.18078,1.18078 1.77117,2.55834 1.77117,4.13273v47.23123c0,1.67278 -0.59039,3.09955 -1.77117,4.28033c-1.18078,1.08239 -2.55837,1.62357 -4.13273,1.62357h-106.27027c-1.67278,0 -3.09955,-0.54118 -4.28033,-1.62357c-1.08236,-1.18078 -1.62357,-2.60755 -1.62357,-4.28033v-47.08363c0,-1.67278 0.54118,-3.09955 1.62357,-4.28033c1.18078,-1.18078 2.60758,-1.77117 4.28033,-1.77117h47.23123v-14.61216c0,-1.67278 0.54118,-3.09955 1.62357,-4.28033" fill="#ffffff" stroke-width="5.5"/></g></g></svg>